<?xml version="1.0" encoding="utf-8"?>
<!-- Generator: Adobe Illustrator 19.2.1, SVG Export Plug-In . SVG Version: 6.00 Build 0)  -->
<svg version="1.1" id="logo" xmlns="http://www.w3.org/2000/svg" xmlns:xlink="http://www.w3.org/1999/xlink" x="0px" y="0px"
	 viewBox="0 0 84 124" style="enable-background:new 0 0 84 124;" xml:space="preserve">
<style type="text/css">
	.st0{fill:#FFFFFF;}
</style>
<g id="symbol">
	<path class="st0" d="M82.7,64.9c-0.2,0.1-0.3,0.2-0.5,0.3c-0.1,0.1-0.2,0.1-0.3,0.1c0,0-2.9,0.8-7.2,2L74,65.7l-2.5-5.5
		c1.3-0.1,2.5-0.1,3.7-0.2c0.4,0,0.7,0,1.1-0.1c-0.3-0.5-0.6-1-0.9-1.5c-0.7-1.2-1.5-2.5-2.4-4c-3.5-5.9-8.2-13.7-13-21.6
		c-2.3-3.9-4.7-7.8-6.9-11.5c-0.9-1.5-1.7-2.9-2.5-4.3c1.2,2.5,2.4,5.2,3.7,8.1c2.1,4.6,4.3,9.4,6.5,14.3
		c4.4,9.7,8.8,19.4,12.2,26.7c0.8,1.8,1.6,3.5,2.3,5c0.7,1.5,1.3,2.8,1.7,3.8c0.5,1.1,0.8,1.9,1.1,2.5c0.2,0.6,0.4,0.9,0.4,0.9
		c0.6,1.4-0.2,3.1-1.6,3.6c-0.9,0.3-1.8,0.2-2.5-0.3c-0.3-0.2-0.6-0.4-0.8-0.7c0,0-0.1-0.2-0.4-0.6s-0.6-0.9-1.1-1.7
		c-0.5-0.7-1-1.6-1.6-2.6s-1.3-2.2-2.1-3.4c-0.4-0.6-0.7-1.3-1.1-1.9c0.6-0.2,1.2-0.3,1.7-0.5c-0.3-0.6-0.5-1.3-0.8-2
		c-3-7.4-7-17.3-11-27.2c-2-5-4-9.9-5.8-14.6c-1.9-4.6-3.6-9-5.1-12.7c-1.1-2.8-2.1-5.3-2.9-7.2c0,1.6,0.1,3.6,0.2,5.8
		c0.1,3.4,0.2,7.4,0.3,11.6c0.1,4.3,0.2,8.8,0.4,13.4c0.2,9.1,0.5,18.2,0.6,25c0,1.7,0.1,3.3,0.1,4.7c0,1.1,0.1,2.2,0.1,3l0,0
		c0.8-0.2,1.6-0.3,2.6-0.5c1.9-0.4,4.1-0.8,6.4-1.3c1.2-0.2,2.4-0.5,3.6-0.7c1.2-0.3,2.5-0.5,3.7-0.8c1.5-0.3,3-0.6,4.4-0.9l1.2,3
		l0.3,0.7c-1.5,0.4-3.1,0.9-4.7,1.3c-4.9,1.4-9.8,2.8-13.5,3.9c-0.9,0.3-1.8,0.5-2.5,0.7s-1.4,0.4-1.9,0.5c-1.1,0.3-1.7,0.5-1.7,0.5
		c-0.5,0.1-0.9,0.1-1.4,0h-0.1c0,0-0.6-0.2-1.7-0.5c-0.5-0.2-1.2-0.3-1.9-0.5s-1.6-0.5-2.5-0.7c-3.7-1.1-8.6-2.5-13.5-3.9
		c-1.6-0.5-3.2-0.9-4.7-1.3l0.3-0.7l1.2-3c1.5,0.3,2.9,0.6,4.4,0.9c1.3,0.3,2.5,0.5,3.7,0.8s2.4,0.5,3.6,0.7
		c2.3,0.5,4.5,0.9,6.4,1.3c0.9,0.2,1.8,0.4,2.6,0.5l0,0c0-0.9,0-1.9,0.1-3c0-1.4,0.1-2.9,0.1-4.7c0.2-6.8,0.4-15.9,0.6-25
		c0.1-4.5,0.2-9.1,0.4-13.4c0.1-4.3,0.2-8.2,0.3-11.6c0.1-2.2,0.1-4.2,0.2-5.8c-0.8,2-1.8,4.4-2.9,7.2c-1.5,3.7-3.2,8.1-5.1,12.7
		C31,31.1,29,36.1,27,41c-4,9.9-8,19.8-11,27.2c-0.3,0.7-0.5,1.4-0.8,2c0.6,0.2,1.2,0.3,1.7,0.5c-0.4,0.7-0.8,1.3-1.1,1.9
		C15,73.9,14.4,75,13.7,76c-0.6,1-1.2,1.9-1.6,2.6c-0.5,0.7-0.8,1.3-1.1,1.7c-0.3,0.4-0.4,0.6-0.4,0.6c-0.2,0.3-0.5,0.6-0.8,0.8
		C9,82.2,8,82.3,7.1,81.9c-1.3-0.6-1.9-2.2-1.4-3.5c0,0,0.1-0.3,0.4-0.9c0.2-0.6,0.6-1.4,1.1-2.5s1-2.4,1.7-3.8
		c0.7-1.5,1.4-3.2,2.3-5c3.3-7.3,7.7-17,12.2-26.7c2.2-4.9,4.4-9.7,6.5-14.3c1.3-2.8,2.5-5.5,3.7-8.1c-0.8,1.4-1.7,2.8-2.5,4.3
		c-2.2,3.7-4.6,7.6-6.9,11.5c-4.7,7.8-9.4,15.7-13,21.6c-0.9,1.5-1.7,2.8-2.4,4c-0.3,0.5-0.6,1-0.9,1.5c0.3,0,0.7,0,1.1,0.1
		c1.1,0.1,2.4,0.1,3.7,0.2L10,65.7l-0.8,1.7c-3.7-1-6.4-1.8-7-1.9c-0.4-0.1-0.8-0.3-1.1-0.5c0,0-0.1,0-0.1-0.1
		c-1-0.9-1.3-2.5-0.6-3.7c0,0,0.1-0.2,0.4-0.7s0.7-1.1,1.2-2c0.5-0.8,1.2-1.9,2-3c0.8-1.2,1.7-2.5,2.6-3.9c3.8-5.7,8.9-13.3,14-20.9
		c2.6-3.8,5.1-7.6,7.5-11.1c2.4-3.6,4.6-6.9,6.6-9.7c3.8-5.7,6.4-9.5,6.4-9.5c0.1-0.2,0.3-0.3,0.5-0.4l0,0c0,0,0,0,0.1,0
		c0,0,0,0,0.1,0l0,0c0.1,0,0.1,0,0.2,0l0,0l0,0c0.1,0,0.1,0,0.2,0l0,0c0,0,0,0,0.1,0c0,0,0,0,0.1,0l0,0c0.2,0.1,0.3,0.2,0.5,0.4
		c0,0,2.6,3.8,6.4,9.5c1.9,2.8,4.2,6.2,6.6,9.7c2.4,3.6,5,7.3,7.5,11.1c5.1,7.6,10.2,15.2,14,20.9c1,1.4,1.8,2.7,2.6,3.9
		c0.8,1.2,1.4,2.2,2,3c0.5,0.8,1,1.5,1.2,2c0.3,0.5,0.4,0.7,0.4,0.7C84.4,62.5,84,64.1,82.7,64.9z M54.4,61
		c-1.2,0.1-2.3,0.1-3.3,0.2c-1.1,0.1-2.1,0.1-3,0.2c-0.8,0-1.6,0.1-2.3,0.1v0.8v1.6c0.7,0,1.4,0.1,2.2,0.1c0.9,0,1.9,0.1,3,0.2
		s2.2,0.1,3.3,0.2c2.3,0.1,4.8,0.2,7.2,0.4c0.1,0,0.2,0,0.3,0l-1.3-2.2l-1.1-1.8C57.8,60.8,56.1,60.9,54.4,61z M32.9,61.2
		c-1.1-0.1-2.2-0.1-3.3-0.2c-1.7-0.1-3.4-0.2-5.2-0.3l-2.4,4c0.1,0,0.2,0,0.3,0c2.5-0.1,4.9-0.2,7.2-0.4c1.2-0.1,2.3-0.1,3.3-0.2
		c1.1-0.1,2.1-0.1,3-0.2c0.8,0,1.5-0.1,2.2-0.1v-1.6v-0.8c-0.7,0-1.4-0.1-2.3-0.1C34.9,61.3,33.9,61.2,32.9,61.2z M65.2,64.6
		l-3.5-8.8l-2.2-5.4c-1.8-2.7-3.7-5.4-5.4-7.9c-1-1.5-2-3-3-4.4s-1.9-2.7-2.7-3.9c-1.3-1.9-2.4-3.6-3.3-4.9l0.1,2.2l0.1,2.5
		c0.3,0.5,0.6,1.1,1,1.7c0.7,1.3,1.6,2.6,2.4,4.1c0.9,1.4,1.8,3,2.7,4.5c1.9,3.2,3.9,6.5,5.9,9.9c2.2,3.7,4.4,7.3,6.4,10.7
		L65.2,64.6z M38.9,31.5l0.1-2.2c-0.9,1.3-2,3-3.3,4.9c-0.8,1.2-1.7,2.5-2.7,3.9c-1,1.5-2,2.9-3,4.4c-1.7,2.5-3.6,5.2-5.4,7.9
		l-4.7,11.8l-1,2.4l0.6,0.1l1,0.2c2-3.4,4.2-7.1,6.4-10.7c2-3.4,4-6.7,5.9-9.9c0.9-1.6,1.8-3.1,2.7-4.5s1.7-2.8,2.4-4.1
		c0.3-0.6,0.7-1.1,1-1.7L38.9,31.5z"/>
</g>
<g id="logotype">
	<path class="st0" d="M13.1,111.4l-0.5-2.4H8.8l-0.5,2.4H4l4.1-15.9h5.3l4.1,15.9H13.1z M9.5,105.9H12l-1.2-5.7L9.5,105.9z"/>
	<path class="st0" d="M29.7,101.4h-4.3v-2.6c0-0.4-0.2-0.5-0.6-0.5h-0.9c-0.4,0-0.6,0.2-0.6,0.5v9.1c0,0.4,0.2,0.5,0.6,0.5h0.9
		c0.4,0,0.6-0.2,0.6-0.5v-2.5h4.3v2.8c0,2-1.2,3.1-3.6,3.1h-3.5c-2.4,0-3.6-1-3.6-3.1v-9.8c0-2,1.2-3.1,3.6-3.1h3.5
		c2.4,0,3.6,1,3.6,3.1V101.4z"/>
	<path class="st0" d="M36.4,108.3h5.4v3.1H32V95.5h9.5v3.1h-5.2v3.2h4.5v3.1h-4.5L36.4,108.3L36.4,108.3z"/>
	<path class="st0" d="M47.5,111.4h-3.9V95.5h4.7L51,104l2.6-8.5h4.7v15.9h-3.8v-10.1l-2,6.7h-3l-2-6.6V111.4z"/>
	<path class="st0" d="M61.2,95.5h4.3v15.9h-4.3V95.5z"/>
	<path class="st0" d="M72.1,105.7v5.7h-4.3V95.5h7.4c2.4,0,3.6,1,3.6,3.1v4.1c0,1.6-0.7,2.5-2.1,2.9l2.9,5.8h-4.7l-2.5-5.7
		C72.4,105.7,72.1,105.7,72.1,105.7z M73.8,98.6h-1.7v4.2h1.7c0.4,0,0.6-0.2,0.6-0.5v-3.1C74.5,98.7,74.3,98.6,73.8,98.6z"/>
</g>
<g id="slogan">
	<path class="st0" d="M4.4,115.9H7c0.7,0,1,0.3,1,1v6c0,0.7-0.3,1-1,1H4.4V115.9z M7.1,122.8v-5.7c0-0.2,0-0.3-0.1-0.3
		s-0.2-0.1-0.3-0.1H5.3v6.5h1.4c0.2,0,0.3,0,0.3-0.1C7,123.1,7.1,123,7.1,122.8z"/>
	<path class="st0" d="M11.4,123.2h2.2v0.8h-3.1v-8.1h3v0.8h-2.1v2.7h1.7v0.8h-1.7V123.2z"/>
	<path class="st0" d="M17.8,122.8v-2.2c0-0.2,0-0.3-0.1-0.3s-0.2-0.1-0.3-0.1h-0.9c-0.7,0-1-0.3-1-1V117c0-0.7,0.3-1,1-1h1.1
		c0.7,0,1,0.3,1,1v1.2h-0.9v-1.1c0-0.2,0-0.3-0.1-0.3c0,0-0.2-0.1-0.3-0.1h-0.6c-0.2,0-0.3,0-0.3,0.1c0,0-0.1,0.2-0.1,0.3v2
		c0,0.2,0,0.3,0.1,0.3c0,0.1,0.2,0.1,0.3,0.1h0.9c0.7,0,1,0.3,1,1v2.5c0,0.7-0.3,1-1,1h-1.1c-0.7,0-1-0.3-1-1v-1.2h0.9v1.1
		c0,0.2,0,0.3,0.1,0.3c0,0,0.2,0.1,0.3,0.1h0.6c0.2,0,0.3,0,0.3-0.1C17.8,123.1,17.8,123,17.8,122.8z"/>
	<path class="st0" d="M21,115.9h0.9v8.1H21V115.9z"/>
	<path class="st0" d="M28.3,118.2h-0.9v-1.1c0-0.2,0-0.3-0.1-0.3s-0.2-0.1-0.3-0.1h-0.7c-0.2,0-0.3,0-0.3,0.1c0,0-0.1,0.2-0.1,0.3
		v5.8c0,0.2,0,0.3,0.1,0.3c0,0.1,0.2,0.1,0.3,0.1H27c0.2,0,0.3,0,0.3-0.1c0.1-0.1,0.1-0.2,0.1-0.3v-2.1h-0.6V120h1.5v3.1
		c0,0.7-0.3,1-1,1H26c-0.7,0-1-0.3-1-1v-6c0-0.7,0.3-1,1-1h1.3c0.7,0,1,0.3,1,1V118.2z"/>
	<path class="st0" d="M33.9,115.9h0.8v8.1h-1l-1.7-6.3v6.3h-0.8v-8.1h1l1.6,6v-6H33.9z"/>
	<path class="st0" d="M41.3,119.6v0.8h-1.7v1.9h-0.9v-1.9H37v-0.8h1.7v-1.9h0.9v1.9H41.3z"/>
	<path class="st0" d="M43.6,115.9h2.6c0.7,0,1,0.3,1,1v6c0,0.7-0.3,1-1,1h-2.6V115.9z M46.3,122.8v-5.7c0-0.2,0-0.3-0.1-0.3
		s-0.2-0.1-0.3-0.1h-1.4v6.5h1.4c0.2,0,0.3,0,0.3-0.1S46.3,123,46.3,122.8z"/>
	<path class="st0" d="M50.6,123.2h2.2v0.8h-3.1v-8.1h3v0.8h-2.1v2.7h1.7v0.8h-1.7C50.6,120.2,50.6,123.2,50.6,123.2z"/>
	<path class="st0" d="M57.4,115.9h0.9L57,124h-1.4l-1.3-8.1h0.9l1.1,7.5L57.4,115.9z"/>
	<path class="st0" d="M61,123.2h2.2v0.8h-3.1v-8.1h3v0.8H61v2.7h1.7v0.8H61V123.2z"/>
	<path class="st0" d="M66.2,123.2H68v0.8h-2.7v-8.1h0.9C66.2,115.9,66.2,123.2,66.2,123.2z"/>
	<path class="st0" d="M71.4,115.9h1.3c0.7,0,1,0.3,1,1v6c0,0.7-0.3,1-1,1h-1.3c-0.7,0-1-0.3-1-1v-6
		C70.4,116.2,70.7,115.9,71.4,115.9z M72.9,122.8v-5.7c0-0.2,0-0.3-0.1-0.3s-0.2-0.1-0.3-0.1h-0.8c-0.2,0-0.3,0-0.3,0.1
		c-0.1,0-0.1,0.2-0.1,0.3v5.7c0,0.2,0,0.3,0.1,0.3s0.2,0.1,0.3,0.1h0.8c0.2,0,0.3,0,0.3-0.1C72.9,123.1,72.9,123,72.9,122.8z"/>
	<path class="st0" d="M76.6,115.9H79c0.7,0,1,0.3,1,1v2.8c0,0.7-0.3,1-1,1h-1.5v3.2h-0.9V115.9z M79.1,119.6v-2.5
		c0-0.2,0-0.3-0.1-0.3c0,0-0.2-0.1-0.3-0.1h-1.2v3.3h1.2c0.2,0,0.3,0,0.3-0.1C79.1,119.9,79.1,119.7,79.1,119.6z"/>
</g>
</svg>
