<svg xmlns="http://www.w3.org/2000/svg" viewBox="0 0 84 124"><path d="M82.7 64.9c-.2.1-.3.2-.5.3-.1.1-.2.1-.3.1 0 0-2.9.8-7.2 2l-.7-1.6-2.5-5.5c1.3-.1 2.5-.1 3.7-.2.4 0 .7 0 1.1-.1l-.9-1.5c-.7-1.2-1.5-2.5-2.4-4-3.5-5.9-8.2-13.7-13-21.6-2.3-3.9-4.7-7.8-6.9-11.5-.9-1.5-1.7-2.9-2.5-4.3 1.2 2.5 2.4 5.2 3.7 8.1 2.1 4.6 4.3 9.4 6.5 14.3 4.4 9.7 8.8 19.4 12.2 26.7.8 1.8 1.6 3.5 2.3 5 .7 1.5 1.3 2.8 1.7 3.8.5 1.1.8 1.9 1.1 2.5.2.6.4.9.4.9.6 1.4-.2 3.1-1.6 3.6-.9.3-1.8.2-2.5-.3-.3-.2-.6-.4-.8-.7 0 0-.1-.2-.4-.6s-.6-.9-1.1-1.7c-.5-.7-1-1.6-1.6-2.6s-1.3-2.2-2.1-3.4c-.4-.6-.7-1.3-1.1-1.9.6-.2 1.2-.3 1.7-.5-.3-.6-.5-1.3-.8-2-3-7.4-7-17.3-11-27.2-2-5-4-9.9-5.8-14.6-1.9-4.6-3.6-9-5.1-12.7-1.1-2.8-2.1-5.3-2.9-7.2 0 1.6.1 3.6.2 5.8.1 3.4.2 7.4.3 11.6.1 4.3.2 8.8.4 13.4.2 9.1.5 18.2.6 25 0 1.7.1 3.3.1 4.7 0 1.1.1 2.2.1 3 .8-.2 1.6-.3 2.6-.5 1.9-.4 4.1-.8 6.4-1.3 1.2-.2 2.4-.5 3.6-.7 1.2-.3 2.5-.5 3.7-.8 1.5-.3 3-.6 4.4-.9l1.2 3 .3.7c-1.5.4-3.1.9-4.7 1.3-4.9 1.4-9.8 2.8-13.5 3.9-.9.3-1.8.5-2.5.7s-1.4.4-1.9.5c-1.1.3-1.7.5-1.7.5-.5.1-.9.1-1.4 0h-.1s-.6-.2-1.7-.5c-.5-.2-1.2-.3-1.9-.5s-1.6-.5-2.5-.7c-3.7-1.1-8.6-2.5-13.5-3.9-1.6-.5-3.2-.9-4.7-1.3l.3-.7 1.2-3c1.5.3 2.9.6 4.4.9 1.3.3 2.5.5 3.7.8s2.4.5 3.6.7c2.3.5 4.5.9 6.4 1.3.9.2 1.8.4 2.6.5 0-.9 0-1.9.1-3 0-1.4.1-2.9.1-4.7.2-6.8.4-15.9.6-25 .1-4.5.2-9.1.4-13.4.1-4.3.2-8.2.3-11.6.1-2.2.1-4.2.2-5.8-.8 2-1.8 4.4-2.9 7.2-1.5 3.7-3.2 8.1-5.1 12.7C31 31.1 29 36.1 27 41c-4 9.9-8 19.8-11 27.2-.3.7-.5 1.4-.8 2 .6.2 1.2.3 1.7.5-.4.7-.8 1.3-1.1 1.9-.8 1.3-1.4 2.4-2.1 3.4-.6 1-1.2 1.9-1.6 2.6-.5.7-.8 1.3-1.1 1.7-.3.4-.4.6-.4.6-.2.3-.5.6-.8.8-.8.5-1.8.6-2.7.2-1.3-.6-1.9-2.2-1.4-3.5 0 0 .1-.3.4-.9.2-.6.6-1.4 1.1-2.5s1-2.4 1.7-3.8c.7-1.5 1.4-3.2 2.3-5 3.3-7.3 7.7-17 12.2-26.7 2.2-4.9 4.4-9.7 6.5-14.3 1.3-2.8 2.5-5.5 3.7-8.1-.8 1.4-1.7 2.8-2.5 4.3-2.2 3.7-4.6 7.6-6.9 11.5-4.7 7.8-9.4 15.7-13 21.6-.9 1.5-1.7 2.8-2.4 4L7.9 60c.3 0 .7 0 1.1.1 1.1.1 2.4.1 3.7.2L10 65.7l-.8 1.7c-3.7-1-6.4-1.8-7-1.9-.4-.1-.8-.3-1.1-.5 0 0-.1 0-.1-.1-1-.9-1.3-2.5-.6-3.7 0 0 .1-.2.4-.7s.7-1.1 1.2-2c.5-.8 1.2-1.9 2-3 .8-1.2 1.7-2.5 2.6-3.9 3.8-5.7 8.9-13.3 14-20.9 2.6-3.8 5.1-7.6 7.5-11.1 2.4-3.6 4.6-6.9 6.6-9.7C38.5 4.2 41.1.4 41.1.4c.1-.2.3-.3.5-.4h.8c.2.1.3.2.5.4 0 0 2.6 3.8 6.4 9.5 1.9 2.8 4.2 6.2 6.6 9.7 2.4 3.6 5 7.3 7.5 11.1 5.1 7.6 10.2 15.2 14 20.9 1 1.4 1.8 2.7 2.6 3.9.8 1.2 1.4 2.2 2 3 .5.8 1 1.5 1.2 2 .3.5.4.7.4.7.8 1.3.4 2.9-.9 3.7zM54.4 61c-1.2.1-2.3.1-3.3.2-1.1.1-2.1.1-3 .2-.8 0-1.6.1-2.3.1V63.9c.7 0 1.4.1 2.2.1.9 0 1.9.1 3 .2s2.2.1 3.3.2c2.3.1 4.8.2 7.2.4h.3l-1.3-2.2-1.1-1.8c-1.6 0-3.3.1-5 .2zm-21.5.2c-1.1-.1-2.2-.1-3.3-.2-1.7-.1-3.4-.2-5.2-.3l-2.4 4h.3c2.5-.1 4.9-.2 7.2-.4 1.2-.1 2.3-.1 3.3-.2 1.1-.1 2.1-.1 3-.2.8 0 1.5-.1 2.2-.1V61.4c-.7 0-1.4-.1-2.3-.1-.8 0-1.8-.1-2.8-.1zm32.3 3.4l-3.5-8.8-2.2-5.4c-1.8-2.7-3.7-5.4-5.4-7.9-1-1.5-2-3-3-4.4s-1.9-2.7-2.7-3.9c-1.3-1.9-2.4-3.6-3.3-4.9l.1 2.2.1 2.5c.3.5.6 1.1 1 1.7.7 1.3 1.6 2.6 2.4 4.1.9 1.4 1.8 3 2.7 4.5 1.9 3.2 3.9 6.5 5.9 9.9 2.2 3.7 4.4 7.3 6.4 10.7l1.5-.3zM38.9 31.5l.1-2.2c-.9 1.3-2 3-3.3 4.9-.8 1.2-1.7 2.5-2.7 3.9-1 1.5-2 2.9-3 4.4-1.7 2.5-3.6 5.2-5.4 7.9l-4.7 11.8-1 2.4.6.1 1 .2c2-3.4 4.2-7.1 6.4-10.7 2-3.4 4-6.7 5.9-9.9.9-1.6 1.8-3.1 2.7-4.5s1.7-2.8 2.4-4.1c.3-.6.7-1.1 1-1.7v-2.5z" fill="#ededed"/><path d="M13.1 111.4l-.5-2.4H8.8l-.5 2.4H4l4.1-15.9h5.3l4.1 15.9h-4.4zm-3.6-5.5H12l-1.2-5.7-1.3 5.7zM29.7 101.4h-4.3v-2.6c0-.4-.2-.5-.6-.5h-.9c-.4 0-.6.2-.6.5v9.1c0 .4.2.5.6.5h.9c.4 0 .6-.2.6-.5v-2.5h4.3v2.8c0 2-1.2 3.1-3.6 3.1h-3.5c-2.4 0-3.6-1-3.6-3.1v-9.8c0-2 1.2-3.1 3.6-3.1h3.5c2.4 0 3.6 1 3.6 3.1v3zM36.4 108.3h5.4v3.1H32V95.5h9.5v3.1h-5.2v3.2h4.5v3.1h-4.5l.1 3.4zM47.5 111.4h-3.9V95.5h4.7L51 104l2.6-8.5h4.7v15.9h-3.8v-10.1l-2 6.7h-3l-2-6.6v10zM61.2 95.5h4.3v15.9h-4.3V95.5zM72.1 105.7v5.7h-4.3V95.5h7.4c2.4 0 3.6 1 3.6 3.1v4.1c0 1.6-.7 2.5-2.1 2.9l2.9 5.8h-4.7l-2.5-5.7h-.3zm1.7-7.1h-1.7v4.2h1.7c.4 0 .6-.2.6-.5v-3.1c.1-.5-.1-.6-.6-.6z" fill="#ededed"/><path d="M4.4 115.9H7c.7 0 1 .3 1 1v6c0 .7-.3 1-1 1H4.4v-8zm2.7 6.9v-5.7c0-.2 0-.3-.1-.3s-.2-.1-.3-.1H5.3v6.5h1.4c.2 0 .3 0 .3-.1 0 0 .1-.1.1-.3zM11.4 123.2h2.2v.8h-3.1v-8.1h3v.8h-2.1v2.7h1.7v.8h-1.7v3zM17.8 122.8v-2.2c0-.2 0-.3-.1-.3s-.2-.1-.3-.1h-.9c-.7 0-1-.3-1-1V117c0-.7.3-1 1-1h1.1c.7 0 1 .3 1 1v1.2h-.9v-1.1c0-.2 0-.3-.1-.3 0 0-.2-.1-.3-.1h-.6c-.2 0-.3 0-.3.1 0 0-.1.2-.1.3v2c0 .2 0 .3.1.3 0 .1.2.1.3.1h.9c.7 0 1 .3 1 1v2.5c0 .7-.3 1-1 1h-1.1c-.7 0-1-.3-1-1v-1.2h.9v1.1c0 .2 0 .3.1.3 0 0 .2.1.3.1h.6c.2 0 .3 0 .3-.1.1-.1.1-.2.1-.4zM21 115.9h.9v8.1H21v-8.1zM28.3 118.2h-.9v-1.1c0-.2 0-.3-.1-.3s-.2-.1-.3-.1h-.7c-.2 0-.3 0-.3.1 0 0-.1.2-.1.3v5.8c0 .2 0 .3.1.3 0 .1.2.1.3.1h.7c.2 0 .3 0 .3-.1.1-.1.1-.2.1-.3v-2.1h-.6v-.8h1.5v3.1c0 .7-.3 1-1 1H26c-.7 0-1-.3-1-1v-6c0-.7.3-1 1-1h1.3c.7 0 1 .3 1 1v1.1zM33.9 115.9h.8v8.1h-1l-1.7-6.3v6.3h-.8v-8.1h1l1.6 6v-6h.1zM41.3 119.6v.8h-1.7v1.9h-.9v-1.9H37v-.8h1.7v-1.9h.9v1.9h1.7zM43.6 115.9h2.6c.7 0 1 .3 1 1v6c0 .7-.3 1-1 1h-2.6v-8zm2.7 6.9v-5.7c0-.2 0-.3-.1-.3s-.2-.1-.3-.1h-1.4v6.5h1.4c.2 0 .3 0 .3-.1s.1-.1.1-.3zM50.6 123.2h2.2v.8h-3.1v-8.1h3v.8h-2.1v2.7h1.7v.8h-1.7v3zM57.4 115.9h.9L57 124h-1.4l-1.3-8.1h.9l1.1 7.5 1.1-7.5zM61 123.2h2.2v.8h-3.1v-8.1h3v.8H61v2.7h1.7v.8H61v3zM66.2 123.2H68v.8h-2.7v-8.1h.9v7.3zM71.4 115.9h1.3c.7 0 1 .3 1 1v6c0 .7-.3 1-1 1h-1.3c-.7 0-1-.3-1-1v-6c0-.7.3-1 1-1zm1.5 6.9v-5.7c0-.2 0-.3-.1-.3s-.2-.1-.3-.1h-.8c-.2 0-.3 0-.3.1-.1 0-.1.2-.1.3v5.7c0 .2 0 .3.1.3s.2.1.3.1h.8c.2 0 .3 0 .3-.1.1 0 .1-.1.1-.3zM76.6 115.9H79c.7 0 1 .3 1 1v2.8c0 .7-.3 1-1 1h-1.5v3.2h-.9v-8zm2.5 3.7v-2.5c0-.2 0-.3-.1-.3 0 0-.2-.1-.3-.1h-1.2v3.3h1.2c.2 0 .3 0 .3-.1.1 0 .1-.2.1-.3z" fill="#ededed"/></svg>