<svg xmlns="http://www.w3.org/2000/svg" viewBox="0 0 124 40"><path d="M40.2 31.6c-.1.1-.2.1-.3.1l-.1.1-3.5 1-.3-.8-1.2-2.7c.6 0 1.2-.1 1.8-.1h.5c-.1-.2-.3-.5-.4-.7-.3-.6-.7-1.2-1.2-2-1.7-2.9-4-6.7-6.3-10.5-1.1-1.9-2.3-3.8-3.4-5.6l-1.2-2.1c.6 1.2 1.2 2.5 1.8 3.9 1 2.2 2.1 4.6 3.2 6.9 2.2 4.7 4.3 9.5 5.9 13 .4.9.8 1.7 1.1 2.4.3.7.6 1.4.8 1.9.2.5.4.9.5 1.2.1.3.2.4.2.4.3.7-.1 1.5-.8 1.8-.4.2-.9.1-1.2-.1-.1-.1-.3-.2-.4-.4 0 0-.1-.1-.2-.3-.1-.2-.3-.5-.5-.8-.2-.4-.5-.8-.8-1.3-.3-.5-.6-1.1-1-1.7l-.6-.9c.3-.1.6-.2.8-.2-.1-.3-.3-.6-.4-1-1.5-3.6-3.4-8.4-5.3-13.3-1-2.4-1.9-4.8-2.8-7.1-.9-2.3-1.8-4.4-2.5-6.2-.5-1.4-1-2.6-1.4-3.5 0 1 0 1.9.1 3 0 1.7.1 3.6.2 5.7s.1 4.3.2 6.5c.1 4.4.2 8.8.3 12.2 0 .8 0 1.6.1 2.3v1.5l1.2-.3c.9-.2 2-.4 3.1-.6.6-.1 1.2-.2 1.8-.4.6-.1 1.2-.3 1.8-.4.7-.1 1.4-.3 2.2-.4l.6 1.4.1.4c-.8.2-1.5.4-2.3.7-2.4.7-4.8 1.4-6.6 1.9-.4.1-.9.2-1.2.3-.4.1-.7.2-.9.3-.5.1-.8.2-.8.2-.2.1-.5.1-.7 0h-.1s-.3-.1-.8-.2l-.9-.3-1.2-.3c-1.8-.5-4.2-1.2-6.6-1.9-.9-.4-1.6-.6-2.4-.8l.1-.4.6-1.4c.7.1 1.4.3 2.2.4.6.1 1.2.2 1.8.4.6.1 1.2.2 1.8.4 1.1.2 2.2.5 3.1.6.5.1.9.2 1.2.3v-1.5c0-.7 0-1.4.1-2.3.1-3.3.2-7.7.3-12.2.1-2.2.1-4.4.2-6.5.1-2.1.1-4 .2-5.7 0-1.1.1-2 .1-2.8-.4 1-.9 2.2-1.4 3.5-.7 1.8-1.6 3.9-2.5 6.2-.9 2.3-1.9 4.7-2.8 7.1-1.9 4.8-3.9 9.6-5.3 13.3-.1.3-.3.7-.4 1 .3.1.6.2.8.2l-.6.9c-.4.7-.7 1.2-1 1.7-.3.5-.6.9-.8 1.3-.2.4-.4.6-.5.8-.1.2-.2.3-.2.3-.1.2-.3.3-.4.4-.4.2-.9.3-1.3.1-.6-.3-.9-1.1-.7-1.7l.2-.4c.1-.3.3-.7.5-1.2.2-.6.5-1.3.8-2 .3-.7.7-1.5 1.1-2.4 1.6-3.5 3.8-8.3 5.9-13 1.1-2.4 2.2-4.7 3.2-6.9.6-1.4 1.2-2.7 1.8-3.9l-1.2 2.1c-1.1 1.8-2.2 3.7-3.4 5.6-2.3 3.8-4.6 7.6-6.3 10.5-.4.7-.8 1.4-1.2 2-.2.3-.3.5-.4.7h.5c.5 0 1.1.1 1.8.1L4.9 32l-.4.8c-1.8-.5-3.1-.9-3.4-.9-.2 0-.4-.1-.5-.2-.6-.4-.7-1.2-.4-1.8 0 0 .1-.1.2-.3.1-.2.3-.5.6-1 .3-.4.6-.9 1-1.5s.8-1.2 1.3-1.9c1.9-2.8 4.3-6.5 6.8-10.2 1.2-1.8 2.5-3.7 3.7-5.4C15 7.9 16.1 6.3 17 4.9c1.8-2.8 3-4.7 3-4.7l.2-.2h.2c.1 0 .2.1.2.2 0 0 1.2 1.8 3.1 4.6.9 1.4 2 3 3.2 4.7 1.2 1.7 2.4 3.6 3.7 5.4 2.5 3.7 5 7.4 6.8 10.2.5.7.9 1.3 1.3 1.9.4.6.7 1.1 1 1.5.3.4.5.7.6 1 .1.2.2.3.2.3.6.6.4 1.4-.3 1.8zm-13.7-1.9c-.6 0-1.1.1-1.6.1s-1 .1-1.4.1c-.4 0-.8 0-1.1.1V31.2c.3 0 .7 0 1.1.1.4 0 .9 0 1.4.1.5 0 1.1.1 1.6.1 1.1.1 2.3.1 3.5.2h.2l-.6-1.1-.6-1c-.9 0-1.7 0-2.5.1zm-10.5.1c-.5 0-1.1-.1-1.6-.1-.8 0-1.7-.1-2.5-.1l-1.1 1.9h.2c1.2-.1 2.4-.1 3.5-.2.6 0 1.1-.1 1.6-.1s1-.1 1.4-.1c.4 0 .7 0 1.1-.1V29.8c-.3 0-.7 0-1.1-.1-.5.1-1 .1-1.5.1zm15.7 1.6L30 27.2l-1.1-2.6c-.9-1.3-1.8-2.6-2.6-3.9l-1.5-2.1c-.5-.7-.9-1.3-1.3-1.9-.6-.9-1.2-1.7-1.6-2.4v2.2c.2.3.3.5.5.8.4.6.8 1.3 1.2 2 .4.7.9 1.4 1.3 2.2.9 1.5 1.9 3.2 2.9 4.8 1.1 1.8 2.1 3.6 3.1 5.2l.8-.1zM18.9 15.3v-1c-.4.6-1 1.4-1.6 2.4-.4.6-.8 1.2-1.3 1.9s-.9 1.4-1.5 2.1c-.8 1.2-1.7 2.5-2.6 3.9l-2.3 5.7-.5 1.2.3.1.5.1c1-1.7 2.1-3.4 3.1-5.2 1-1.6 1.9-3.3 2.9-4.8.5-.8.9-1.5 1.3-2.2.4-.7.8-1.4 1.2-2 .2-.3.3-.6.5-.8v-1.4z" id="symbol" fill="#ededed"/><path d="M57.1 21.6l-.5-2.4h-3.8l-.5 2.4H48l4.1-15.9h5.3l4.1 15.9h-4.4zm-3.6-5.4H56l-1.2-5.7-1.3 5.7zM73.7 11.7h-4.3V9.1c0-.4-.2-.5-.6-.5h-.9c-.4 0-.6.2-.6.5v9.1c0 .4.2.5.6.5h.9c.4 0 .6-.2.6-.5v-2.5h4.3v2.8c0 2-1.2 3.1-3.6 3.1h-3.5c-2.4 0-3.6-1-3.6-3.1V8.8c0-2 1.2-3.1 3.6-3.1h3.5c2.4 0 3.6 1 3.6 3.1v2.9zM80.4 18.5h5.4v3.1H76V5.7h9.5v3.1h-5.2V12h4.5v3.1h-4.5v3.4zM91.5 21.6h-3.9V5.7h4.7l2.6 8.5 2.6-8.5h4.7v15.9h-3.8V11.5l-2 6.7h-3l-2-6.6v10zM105.2 5.7h4.3v15.9h-4.3V5.7zM116.1 16v5.7h-4.3v-16h7.4c2.4 0 3.6 1 3.6 3.1v4.1c0 1.6-.7 2.5-2.1 2.9l2.9 5.8h-4.7l-2.5-5.7h-.3zm1.7-7.2h-1.7V13h1.7c.4 0 .6-.2.6-.5V9.4c.1-.4-.1-.6-.6-.6z" fill="#ededed"/><path d="M48.4 26.2H51c.7 0 1 .3 1 1v6c0 .7-.3 1-1 1h-2.6v-8zm2.7 6.9v-5.7c0-.2 0-.3-.1-.3s-.2-.1-.3-.1h-1.4v6.5h1.4c.2 0 .3 0 .3-.1s.1-.1.1-.3zM55.4 33.5h2.2v.8h-3.1v-8.1h3v.8h-2.1v2.7h1.7v.8h-1.7v3zM61.8 33.1v-2.2c0-.2 0-.3-.1-.3s-.2-.1-.3-.1h-.9c-.7 0-1-.3-1-1v-2.2c0-.7.3-1 1-1h1.1c.7 0 1 .3 1 1v1.2h-.9v-1.1c0-.2 0-.3-.1-.3 0 0-.2-.1-.3-.1h-.6c-.2 0-.3 0-.3.1 0 0-.1.2-.1.3v2c0 .2 0 .3.1.3 0 .1.2.1.3.1h.9c.7 0 1 .3 1 1v2.5c0 .7-.3 1-1 1h-1.1c-.7 0-1-.3-1-1V32h.9v1.1c0 .2 0 .3.1.3s.2.1.3.1h.6c.2 0 .3 0 .3-.1s.1-.1.1-.3zM65 26.2h.9v8.1H65v-8.1zM72.3 28.4h-.9v-1.1c0-.2 0-.3-.1-.3s-.2-.1-.3-.1h-.7c-.2 0-.3 0-.3.1 0 0-.1.2-.1.3v5.8c0 .2 0 .3.1.3 0 .1.2.1.3.1h.7c.2 0 .3 0 .3-.1.1-.1.1-.2.1-.3V31h-.6v-.8h1.5v3.1c0 .7-.3 1-1 1H70c-.7 0-1-.3-1-1v-6c0-.7.3-1 1-1h1.3c.7 0 1 .3 1 1v1.1zM77.9 26.2h.8v8.1h-1L76.1 28v6.3h-.8v-8.1h1l1.6 6v-6zM85.3 29.8v.8h-1.7v1.9h-.9v-1.9H81v-.8h1.7v-1.9h.9v1.9h1.7zM87.6 26.2h2.6c.7 0 1 .3 1 1v6c0 .7-.3 1-1 1h-2.6v-8zm2.7 6.9v-5.7c0-.2 0-.3-.1-.3s-.2-.1-.3-.1h-1.4v6.5h1.4c.2 0 .3 0 .3-.1s.1-.1.1-.3zM94.6 33.5h2.2v.8h-3.1v-8.1h3v.8h-2.1v2.7h1.7v.8h-1.7v3zM101.4 26.2h.9l-1.3 8.1h-1.4l-1.3-8.1h.9l1.1 7.5 1.1-7.5zM105 33.5h2.2v.8h-3.1v-8.1h3v.8H105v2.7h1.7v.8H105v3zM110.2 33.5h1.9v.8h-2.7v-8.1h.9v7.3zM115.4 26.2h1.3c.7 0 1 .3 1 1v6c0 .7-.3 1-1 1h-1.3c-.7 0-1-.3-1-1v-6c0-.7.3-1 1-1zm1.5 6.9v-5.7c0-.2 0-.3-.1-.3s-.2-.1-.3-.1h-.8c-.2 0-.3 0-.3.1-.1 0-.1.2-.1.3v5.7c0 .2 0 .3.1.3s.2.1.3.1h.8c.2 0 .3 0 .3-.1.1 0 .1-.1.1-.3zM120.6 26.2h2.4c.7 0 1 .3 1 1V30c0 .7-.3 1-1 1h-1.5v3.2h-.9v-8zm2.5 3.6v-2.5c0-.2 0-.3-.1-.3 0 0-.2-.1-.3-.1h-1.2v3.3h1.2c.2 0 .3 0 .3-.1.1 0 .1-.1.1-.3z" fill="#ededed"/></svg>