<?xml version="1.0" encoding="utf-8"?>
<!-- Generator: Adobe Illustrator 19.2.1, SVG Export Plug-In . SVG Version: 6.00 Build 0)  -->
<svg version="1.1" id="logo" xmlns="http://www.w3.org/2000/svg" xmlns:xlink="http://www.w3.org/1999/xlink" x="0px" y="0px"
	 viewBox="0 0 124 40" style="enable-background:new 0 0 124 40;" xml:space="preserve">
<style type="text/css">
	.st0{fill:#FFFFFF;}
</style>
<g id="symbol">
	<path class="st0" d="M40.2,31.6c-0.1,0.1-0.2,0.1-0.3,0.1c0,0-0.1,0.1-0.1,0.1c0,0-1.4,0.4-3.5,1L36,32l-1.2-2.7
		c0.6,0,1.2-0.1,1.8-0.1c0.2,0,0.4,0,0.5,0c-0.1-0.2-0.3-0.5-0.4-0.7c-0.3-0.6-0.7-1.2-1.2-2c-1.7-2.9-4-6.7-6.3-10.5
		c-1.1-1.9-2.3-3.8-3.4-5.6C25.4,9.7,25,9,24.6,8.3c0.6,1.2,1.2,2.5,1.8,3.9c1,2.2,2.1,4.6,3.2,6.9c2.2,4.7,4.3,9.5,5.9,13
		c0.4,0.9,0.8,1.7,1.1,2.4c0.3,0.7,0.6,1.4,0.8,1.9c0.2,0.5,0.4,0.9,0.5,1.2c0.1,0.3,0.2,0.4,0.2,0.4c0.3,0.7-0.1,1.5-0.8,1.8
		c-0.4,0.2-0.9,0.1-1.2-0.1c-0.1-0.1-0.3-0.2-0.4-0.4c0,0-0.1-0.1-0.2-0.3c-0.1-0.2-0.3-0.5-0.5-0.8c-0.2-0.4-0.5-0.8-0.8-1.3
		c-0.3-0.5-0.6-1.1-1-1.7c-0.2-0.3-0.4-0.6-0.6-0.9c0.3-0.1,0.6-0.2,0.8-0.2c-0.1-0.3-0.3-0.6-0.4-1c-1.5-3.6-3.4-8.4-5.3-13.3
		c-1-2.4-1.9-4.8-2.8-7.1c-0.9-2.3-1.8-4.4-2.5-6.2c-0.5-1.4-1-2.6-1.4-3.5C21,4,21,4.9,21.1,6c0,1.7,0.1,3.6,0.2,5.7
		c0.1,2.1,0.1,4.3,0.2,6.5c0.1,4.4,0.2,8.8,0.3,12.2c0,0.8,0,1.6,0.1,2.3c0,0.6,0,1.1,0,1.5c0,0,0,0,0,0c0.4-0.1,0.8-0.2,1.2-0.3
		c0.9-0.2,2-0.4,3.1-0.6c0.6-0.1,1.2-0.2,1.8-0.4c0.6-0.1,1.2-0.3,1.8-0.4c0.7-0.1,1.4-0.3,2.2-0.4l0.6,1.4l0.1,0.4
		c-0.8,0.2-1.5,0.4-2.3,0.7c-2.4,0.7-4.8,1.4-6.6,1.9c-0.4,0.1-0.9,0.2-1.2,0.3c-0.4,0.1-0.7,0.2-0.9,0.3c-0.5,0.1-0.8,0.2-0.8,0.2
		c-0.2,0.1-0.5,0.1-0.7,0c0,0,0,0-0.1,0c0,0-0.3-0.1-0.8-0.2c-0.3-0.1-0.6-0.2-0.9-0.3c-0.4-0.1-0.8-0.2-1.2-0.3
		c-1.8-0.5-4.2-1.2-6.6-1.9C9.7,34.2,9,34,8.2,33.8l0.1-0.4L8.9,32c0.7,0.1,1.4,0.3,2.2,0.4c0.6,0.1,1.2,0.2,1.8,0.4
		c0.6,0.1,1.2,0.2,1.8,0.4c1.1,0.2,2.2,0.5,3.1,0.6c0.5,0.1,0.9,0.2,1.2,0.3c0,0,0,0,0,0c0-0.4,0-0.9,0-1.5c0-0.7,0-1.4,0.1-2.3
		c0.1-3.3,0.2-7.7,0.3-12.2c0.1-2.2,0.1-4.4,0.2-6.5c0.1-2.1,0.1-4,0.2-5.7c0-1.1,0.1-2,0.1-2.8c-0.4,1-0.9,2.2-1.4,3.5
		c-0.7,1.8-1.6,3.9-2.5,6.2c-0.9,2.3-1.9,4.7-2.8,7.1c-1.9,4.8-3.9,9.6-5.3,13.3c-0.1,0.3-0.3,0.7-0.4,1c0.3,0.1,0.6,0.2,0.8,0.2
		c-0.2,0.3-0.4,0.6-0.6,0.9C7.3,36,7,36.5,6.7,37c-0.3,0.5-0.6,0.9-0.8,1.3c-0.2,0.4-0.4,0.6-0.5,0.8c-0.1,0.2-0.2,0.3-0.2,0.3
		c-0.1,0.2-0.3,0.3-0.4,0.4c-0.4,0.2-0.9,0.3-1.3,0.1c-0.6-0.3-0.9-1.1-0.7-1.7c0,0,0.1-0.2,0.2-0.4c0.1-0.3,0.3-0.7,0.5-1.2
		C3.7,36,4,35.3,4.3,34.6c0.3-0.7,0.7-1.5,1.1-2.4c1.6-3.5,3.8-8.3,5.9-13c1.1-2.4,2.2-4.7,3.2-6.9c0.6-1.4,1.2-2.7,1.8-3.9
		c-0.4,0.7-0.8,1.4-1.2,2.1c-1.1,1.8-2.2,3.7-3.4,5.6c-2.3,3.8-4.6,7.6-6.3,10.5c-0.4,0.7-0.8,1.4-1.2,2c-0.2,0.3-0.3,0.5-0.4,0.7
		c0.2,0,0.3,0,0.5,0c0.5,0,1.1,0.1,1.8,0.1L4.9,32l-0.4,0.8c-1.8-0.5-3.1-0.9-3.4-0.9c-0.2,0-0.4-0.1-0.5-0.2c0,0,0,0,0,0
		c-0.6-0.4-0.7-1.2-0.4-1.8c0,0,0.1-0.1,0.2-0.3c0.1-0.2,0.3-0.5,0.6-1c0.3-0.4,0.6-0.9,1-1.5c0.4-0.6,0.8-1.2,1.3-1.9
		c1.9-2.8,4.3-6.5,6.8-10.2c1.2-1.8,2.5-3.7,3.7-5.4c1.2-1.7,2.3-3.3,3.2-4.7C18.8,2.1,20,0.2,20,0.2c0.1-0.1,0.1-0.1,0.2-0.2
		c0,0,0,0,0,0c0,0,0,0,0,0c0,0,0,0,0,0c0,0,0,0,0,0c0,0,0.1,0,0.1,0c0,0,0,0,0,0c0,0,0,0,0,0c0,0,0.1,0,0.1,0c0,0,0,0,0,0
		c0,0,0,0,0,0c0,0,0,0,0,0c0,0,0,0,0,0c0.1,0,0.2,0.1,0.2,0.2c0,0,1.2,1.8,3.1,4.6c0.9,1.4,2,3,3.2,4.7c1.2,1.7,2.4,3.6,3.7,5.4
		c2.5,3.7,5,7.4,6.8,10.2c0.5,0.7,0.9,1.3,1.3,1.9c0.4,0.6,0.7,1.1,1,1.5c0.3,0.4,0.5,0.7,0.6,1c0.1,0.2,0.2,0.3,0.2,0.3
		C41.1,30.4,40.9,31.2,40.2,31.6z M26.5,29.7c-0.6,0-1.1,0.1-1.6,0.1c-0.5,0-1,0.1-1.4,0.1c-0.4,0-0.8,0-1.1,0.1l0,0.4l0,0.8
		c0.3,0,0.7,0,1.1,0.1c0.4,0,0.9,0,1.4,0.1c0.5,0,1.1,0.1,1.6,0.1c1.1,0.1,2.3,0.1,3.5,0.2c0.1,0,0.1,0,0.2,0l-0.6-1.1L29,29.6
		C28.1,29.6,27.3,29.6,26.5,29.7z M16,29.8c-0.5,0-1.1-0.1-1.6-0.1c-0.8,0-1.7-0.1-2.5-0.1l-1.1,1.9c0.1,0,0.1,0,0.2,0
		c1.2-0.1,2.4-0.1,3.5-0.2c0.6,0,1.1-0.1,1.6-0.1c0.5,0,1-0.1,1.4-0.1c0.4,0,0.7,0,1.1-0.1l0-0.8l0-0.4c-0.3,0-0.7,0-1.1-0.1
		C17,29.8,16.5,29.8,16,29.8z M31.7,31.4L30,27.2l-1.1-2.6c-0.9-1.3-1.8-2.6-2.6-3.9c-0.5-0.7-1-1.4-1.5-2.1
		c-0.5-0.7-0.9-1.3-1.3-1.9c-0.6-0.9-1.2-1.7-1.6-2.4l0,1l0,1.2c0.2,0.3,0.3,0.5,0.5,0.8c0.4,0.6,0.8,1.3,1.2,2
		c0.4,0.7,0.9,1.4,1.3,2.2c0.9,1.5,1.9,3.2,2.9,4.8c1.1,1.8,2.1,3.6,3.1,5.2L31.7,31.4z M18.9,15.3l0-1c-0.4,0.6-1,1.4-1.6,2.4
		c-0.4,0.6-0.8,1.2-1.3,1.9c-0.5,0.7-0.9,1.4-1.5,2.1c-0.8,1.2-1.7,2.5-2.6,3.9l-2.3,5.7l-0.5,1.2l0.3,0.1l0.5,0.1
		c1-1.7,2.1-3.4,3.1-5.2c1-1.6,1.9-3.3,2.9-4.8c0.5-0.8,0.9-1.5,1.3-2.2c0.4-0.7,0.8-1.4,1.2-2c0.2-0.3,0.3-0.6,0.5-0.8L18.9,15.3z"
		/>
</g>
<g id="logotype">
	<path class="st0" d="M57.1,21.6l-0.5-2.4h-3.8l-0.5,2.4H48l4.1-15.9h5.3l4.1,15.9H57.1z M53.5,16.2h2.5l-1.2-5.7L53.5,16.2z"/>
	<path class="st0" d="M73.7,11.7h-4.3V9.1c0-0.4-0.2-0.5-0.6-0.5h-0.9c-0.4,0-0.6,0.2-0.6,0.5v9.1c0,0.4,0.2,0.5,0.6,0.5h0.9
		c0.4,0,0.6-0.2,0.6-0.5v-2.5h4.3v2.8c0,2-1.2,3.1-3.6,3.1h-3.5c-2.4,0-3.6-1-3.6-3.1V8.8c0-2,1.2-3.1,3.6-3.1h3.5
		c2.4,0,3.6,1,3.6,3.1V11.7z"/>
	<path class="st0" d="M80.4,18.5h5.4v3.1h-9.8V5.7h9.5v3.1h-5.2v3.2h4.5v3.1h-4.5V18.5z"/>
	<path class="st0" d="M91.5,21.6h-3.9V5.7h4.7l2.6,8.5l2.6-8.5h4.7v15.9h-3.8V11.5l-2,6.7h-3l-2-6.6V21.6z"/>
	<path class="st0" d="M105.2,5.7h4.3v15.9h-4.3V5.7z"/>
	<path class="st0" d="M116.1,16v5.7h-4.3V5.7h7.4c2.4,0,3.6,1,3.6,3.1v4.1c0,1.6-0.7,2.5-2.1,2.9l2.9,5.8h-4.7l-2.5-5.7H116.1z
		 M117.8,8.8h-1.7V13h1.7c0.4,0,0.6-0.2,0.6-0.5V9.4C118.5,9,118.3,8.8,117.8,8.8z"/>
</g>
<g id="slogan">
	<path class="st0" d="M48.4,26.2h2.6c0.7,0,1,0.3,1,1v6c0,0.7-0.3,1-1,1h-2.6V26.2z M51.1,33.1v-5.7c0-0.2,0-0.3-0.1-0.3
		c-0.1,0-0.2-0.1-0.3-0.1h-1.4v6.5h1.4c0.2,0,0.3,0,0.3-0.1S51.1,33.3,51.1,33.1z"/>
	<path class="st0" d="M55.4,33.5h2.2v0.8h-3.1v-8.1h3v0.8h-2.1v2.7h1.7v0.8h-1.7V33.5z"/>
	<path class="st0" d="M61.8,33.1v-2.2c0-0.2,0-0.3-0.1-0.3c-0.1,0-0.2-0.1-0.3-0.1h-0.9c-0.7,0-1-0.3-1-1v-2.2c0-0.7,0.3-1,1-1h1.1
		c0.7,0,1,0.3,1,1v1.2h-0.9v-1.1c0-0.2,0-0.3-0.1-0.3c0,0-0.2-0.1-0.3-0.1h-0.6c-0.2,0-0.3,0-0.3,0.1c0,0-0.1,0.2-0.1,0.3v2
		c0,0.2,0,0.3,0.1,0.3c0,0.1,0.2,0.1,0.3,0.1h0.9c0.7,0,1,0.3,1,1v2.5c0,0.7-0.3,1-1,1h-1.1c-0.7,0-1-0.3-1-1V32h0.9v1.1
		c0,0.2,0,0.3,0.1,0.3s0.2,0.1,0.3,0.1h0.6c0.2,0,0.3,0,0.3-0.1S61.8,33.3,61.8,33.1z"/>
	<path class="st0" d="M65,26.2h0.9v8.1H65V26.2z"/>
	<path class="st0" d="M72.3,28.4h-0.9v-1.1c0-0.2,0-0.3-0.1-0.3c-0.1,0-0.2-0.1-0.3-0.1h-0.7c-0.2,0-0.3,0-0.3,0.1
		c0,0-0.1,0.2-0.1,0.3v5.8c0,0.2,0,0.3,0.1,0.3c0,0.1,0.2,0.1,0.3,0.1H71c0.2,0,0.3,0,0.3-0.1c0.1-0.1,0.1-0.2,0.1-0.3V31h-0.6v-0.8
		h1.5v3.1c0,0.7-0.3,1-1,1H70c-0.7,0-1-0.3-1-1v-6c0-0.7,0.3-1,1-1h1.3c0.7,0,1,0.3,1,1V28.4z"/>
	<path class="st0" d="M77.9,26.2h0.8v8.1h-1L76.1,28v6.3h-0.8v-8.1h1l1.6,6V26.2z"/>
	<path class="st0" d="M85.3,29.8v0.8h-1.7v1.9h-0.9v-1.9H81v-0.8h1.7v-1.9h0.9v1.9H85.3z"/>
	<path class="st0" d="M87.6,26.2h2.6c0.7,0,1,0.3,1,1v6c0,0.7-0.3,1-1,1h-2.6V26.2z M90.3,33.1v-5.7c0-0.2,0-0.3-0.1-0.3
		c-0.1,0-0.2-0.1-0.3-0.1h-1.4v6.5h1.4c0.2,0,0.3,0,0.3-0.1S90.3,33.3,90.3,33.1z"/>
	<path class="st0" d="M94.6,33.5h2.2v0.8h-3.1v-8.1h3v0.8h-2.1v2.7h1.7v0.8h-1.7V33.5z"/>
	<path class="st0" d="M101.4,26.2h0.9l-1.3,8.1h-1.4l-1.3-8.1h0.9l1.1,7.5L101.4,26.2z"/>
	<path class="st0" d="M105,33.5h2.2v0.8h-3.1v-8.1h3v0.8H105v2.7h1.7v0.8H105V33.5z"/>
	<path class="st0" d="M110.2,33.5h1.9v0.8h-2.7v-8.1h0.9V33.5z"/>
	<path class="st0" d="M115.4,26.2h1.3c0.7,0,1,0.3,1,1v6c0,0.7-0.3,1-1,1h-1.3c-0.7,0-1-0.3-1-1v-6
		C114.4,26.5,114.7,26.2,115.4,26.2z M116.9,33.1v-5.7c0-0.2,0-0.3-0.1-0.3c-0.1,0-0.2-0.1-0.3-0.1h-0.8c-0.2,0-0.3,0-0.3,0.1
		c-0.1,0-0.1,0.2-0.1,0.3v5.7c0,0.2,0,0.3,0.1,0.3c0.1,0,0.2,0.1,0.3,0.1h0.8c0.2,0,0.3,0,0.3-0.1C116.9,33.4,116.9,33.3,116.9,33.1
		z"/>
	<path class="st0" d="M120.6,26.2h2.4c0.7,0,1,0.3,1,1V30c0,0.7-0.3,1-1,1h-1.5v3.2h-0.9V26.2z M123.1,29.8v-2.5
		c0-0.2,0-0.3-0.1-0.3c0,0-0.2-0.1-0.3-0.1h-1.2v3.3h1.2c0.2,0,0.3,0,0.3-0.1C123.1,30.1,123.1,30,123.1,29.8z"/>
</g>
</svg>
